<svg width="15" height="15" viewBox="0 0 15 15" xmlns="http://www.w3.org/2000/svg">
<path d="M7.49993 5.4686C6.3781 5.4686 5.46868 6.37802 5.46868 7.49985C5.46868 8.62167 6.3781 9.5311 7.49993 9.5311C8.62176 9.5311 9.53118 8.62167 9.53118 7.49985C9.53118 6.37802 8.62176 5.4686 7.49993 5.4686Z" fill="currentColor"/>
<path fill-rule="evenodd" clip-rule="evenodd" d="M4.23089 1.92576C6.38597 1.6849 8.61391 1.6849 10.769 1.92576C11.9555 2.05837 12.9125 2.99323 13.0517 4.18389C13.3094 6.38702 13.3094 8.61267 13.0517 10.8158C12.9125 12.0065 11.9555 12.9413 10.769 13.0739C8.61391 13.3148 6.38597 13.3148 4.23089 13.0739C3.04439 12.9413 2.0874 12.0065 1.94814 10.8158C1.69046 8.61267 1.69046 6.38702 1.94814 4.18389C2.0874 2.99323 3.04439 2.05837 4.23089 1.92576ZM10.6249 3.74985C10.2798 3.74985 9.99993 4.02967 9.99993 4.37485C9.99993 4.72002 10.2798 4.99985 10.6249 4.99985C10.9701 4.99985 11.2499 4.72002 11.2499 4.37485C11.2499 4.02967 10.9701 3.74985 10.6249 3.74985ZM4.53118 7.49985C4.53118 5.86025 5.86034 4.5311 7.49993 4.5311C9.13953 4.5311 10.4687 5.86025 10.4687 7.49985C10.4687 9.13944 9.13953 10.4686 7.49993 10.4686C5.86034 10.4686 4.53118 9.13944 4.53118 7.49985Z" fill="currentColor"/>
</svg>
