<svg width="15" height="15" viewBox="0 0 15 15" xmlns="http://www.w3.org/2000/svg">
<path fill-rule="evenodd" clip-rule="evenodd" d="M11.5519 12.3689L11.5524 12.3678L11.5632 12.3406L13.4375 2.8912V2.86051C13.4375 2.62507 13.3505 2.41953 13.1612 2.29625C12.9955 2.18833 12.805 2.18065 12.6715 2.19079C12.5302 2.20151 12.397 2.23677 12.3048 2.26612C12.2574 2.28122 12.2176 2.29577 12.1893 2.30677C12.175 2.31229 12.1635 2.31698 12.1551 2.32047L12.1468 2.32395L1.69692 6.42328L1.69404 6.42431C1.6884 6.42637 1.68093 6.42915 1.67192 6.43266C1.65395 6.43966 1.62948 6.44967 1.60075 6.46269C1.54432 6.48826 1.46636 6.52773 1.3873 6.58187C1.25301 6.67383 0.997318 6.89153 1.04049 7.23667C1.07626 7.52255 1.27332 7.70411 1.40618 7.79811C1.4774 7.84851 1.54553 7.88484 1.59542 7.9086C1.6207 7.92063 1.64217 7.92985 1.65817 7.93636C1.66618 7.93963 1.67289 7.94224 1.67808 7.9442L1.68472 7.94668L1.68896 7.94826L3.51724 8.56376C3.51107 8.67847 3.52244 8.79543 3.55286 8.91083L4.46867 12.3848C4.57725 12.7967 4.94989 13.0837 5.37587 13.0834C5.75771 13.0831 6.09635 12.8521 6.24021 12.5074L7.67001 10.9787L10.1256 12.8613L10.1605 12.8765C10.3836 12.9739 10.5921 13.0047 10.7827 12.9787C10.973 12.9527 11.1242 12.8729 11.2378 12.782C11.3496 12.6926 11.4262 12.5916 11.4744 12.5156C11.4989 12.477 11.5171 12.4431 11.5298 12.4176C11.5361 12.4047 11.5411 12.3939 11.5449 12.3854L11.5496 12.3745L11.5513 12.3705L11.5519 12.3689ZM4.45936 8.67184C4.43855 8.59289 4.47123 8.50954 4.54015 8.46577L10.7414 4.5277C10.7414 4.5277 11.1062 4.30626 11.0931 4.5277C11.0931 4.5277 11.1582 4.5668 10.9628 4.74913C10.7774 4.9223 6.54296 9.01047 6.1145 9.42414C6.08977 9.44802 6.07501 9.47541 6.06629 9.50867L5.37517 12.1459L4.45936 8.67184Z" fill="currentColor"/>
</svg>
