<svg width="15" height="15" viewBox="0 0 15 15" xmlns="http://www.w3.org/2000/svg">
<path d="M13.4397 11.4881H12.0137C11.4742 11.4881 11.312 11.0512 10.3444 10.0837C9.49999 9.26954 9.14326 9.16789 8.92923 9.16789C8.63407 9.16789 8.55295 9.24901 8.55295 9.65656V10.9388C8.55295 11.2858 8.44056 11.4891 7.53456 11.4891C6.65529 11.43 5.80264 11.1629 5.04683 10.7097C4.29103 10.2565 3.6537 9.63025 3.18734 8.88251C2.08018 7.50446 1.30981 5.88709 0.9375 4.15901C0.9375 3.94498 1.01862 3.75146 1.42617 3.75146H2.85114C3.21764 3.75146 3.34958 3.91468 3.49325 4.29096C4.18521 6.32774 5.36584 8.09868 5.84473 8.09868C6.02847 8.09868 6.10862 8.01756 6.10862 7.55919V5.46181C6.04802 4.50499 5.5398 4.42387 5.5398 4.0779C5.54633 3.98664 5.58815 3.90152 5.65639 3.84058C5.72463 3.77964 5.81392 3.74767 5.90533 3.75146H8.1454C8.45131 3.75146 8.55295 3.90393 8.55295 4.27043V7.10081C8.55295 7.40672 8.68489 7.50837 8.77676 7.50837C8.9605 7.50837 9.10222 7.40672 9.43842 7.07052C10.1605 6.18988 10.7505 5.20876 11.1898 4.15804C11.2347 4.03183 11.3197 3.92377 11.4317 3.85036C11.5438 3.77695 11.6768 3.74222 11.8104 3.75146H13.2364C13.6635 3.75146 13.7544 3.9655 13.6635 4.27043C13.145 5.43193 12.5034 6.53449 11.7498 7.55919C11.5964 7.79375 11.5348 7.91592 11.7498 8.19055C11.8916 8.40459 12.391 8.82191 12.7272 9.21871C13.2158 9.70606 13.6215 10.2699 13.9283 10.888C14.0505 11.2848 13.8462 11.4881 13.4397 11.4881Z" fill="currentColor"/>
</svg>
