<svg width="128" height="130" viewBox="0 0 128 130" fill="none" xmlns="http://www.w3.org/2000/svg">
<path d="M63.1148 126.813C47.1892 126.813 31.974 120.123 20.3701 108.046C9.18075 96.3234 2.66841 80.6938 2.4908 65.0642C2.31319 46.0008 11.5489 26.9966 26.6457 15.3928C37.3614 7.16353 50.919 2.60489 64.8317 2.60489C70.5744 2.60489 76.1395 3.37454 81.4678 4.91382C88.9274 7.10433 95.9133 10.7157 102.189 15.748C113.141 24.51 120.779 36.5875 123.798 49.6714C128.534 70.2149 121.667 93.3633 106.274 108.579C95.9133 118.821 81.8822 125.392 67.9103 126.576C66.371 126.754 64.7133 126.813 63.1148 126.813Z" fill="white"/>
<path d="M64.8319 5.09146C70.2194 5.09146 75.6068 5.8019 80.8167 7.34118C88.0987 9.4725 94.7887 13.0247 100.65 17.7609C110.892 25.9902 118.47 37.594 121.371 50.3227C125.989 70.2741 119.24 92.2977 104.557 106.862C94.7887 116.512 81.5864 122.965 67.7328 124.149C66.1935 124.267 64.6543 124.327 63.115 124.327C31.2045 124.327 5.33273 96.0867 5.03671 65.0642C4.8591 46.8297 13.562 28.6543 28.1851 17.4057C38.5457 9.41329 51.6888 5.09146 64.8319 5.09146ZM64.8319 0C50.3863 0 36.296 4.73625 25.1066 13.3207C17.351 19.3002 10.8978 27.2334 6.51679 36.3507C2.13576 45.3496 -0.113962 55.2957 0.00444394 65.0642C0.182053 81.3451 6.93121 97.626 18.5942 109.822C30.6717 122.432 46.5381 129.359 63.1742 129.359C64.8319 129.359 66.5488 129.3 68.2065 129.122C82.7704 127.879 97.3344 121.07 108.169 110.414C115.983 102.658 121.844 92.8305 125.101 82.0555C128.357 71.1622 128.83 59.7952 126.344 49.1386C123.206 35.4627 115.214 22.9116 103.847 13.7943C97.2752 8.52525 90.0524 4.73625 82.2376 2.48653C76.6133 0.828842 70.8114 0 64.8319 0Z" fill="white"/>
<path d="M115.51 35.3444C112.905 32.2658 110.063 29.424 106.925 26.9375C101.064 22.2013 94.3149 18.6491 87.0329 16.5178C69.2128 11.3671 48.9653 15.3337 34.3421 26.5823C19.719 37.8309 10.9569 56.0654 11.1345 74.3592C11.2529 84.6014 14.0947 94.5475 19.0677 103.25C10.3057 92.7122 4.91817 79.2139 4.79977 65.1827C4.62216 46.889 13.3842 28.7136 28.0074 17.4058C42.6306 6.15721 62.878 2.1906 80.6982 7.34127C87.9801 9.47259 94.7293 13.084 100.59 17.761C106.629 22.6157 111.721 28.5952 115.51 35.3444Z" fill="#1B429C" fill-opacity="0.95"/>
<path d="M56.0107 25.8717C60.8172 25.8717 64.7136 22.0548 64.7136 17.3464C64.7136 12.6381 60.8172 8.82117 56.0107 8.82117C51.2043 8.82117 47.3079 12.6381 47.3079 17.3464C47.3079 22.0548 51.2043 25.8717 56.0107 25.8717Z" fill="#1B429C" fill-opacity="0.95"/>
<path d="M93.2494 100.527C95.4991 103.842 94.6111 108.282 91.2365 110.532C87.8619 112.723 83.3033 111.894 81.0536 108.578C78.8039 105.263 79.6919 100.823 83.0665 98.5731C86.4411 96.3826 90.9997 97.2707 93.2494 100.527Z" fill="#1B429C" fill-opacity="0.95"/>
<path d="M78.3892 20.721C80.1061 23.2668 79.4549 26.7006 76.8499 28.4174C74.245 30.1343 70.752 29.4239 69.0351 26.8782C67.3182 24.3324 67.9695 20.8986 70.5744 19.1818C73.1793 17.4649 76.6723 18.1753 78.3892 20.721Z" fill="#1B429C" fill-opacity="0.95"/>
<path d="M102.485 93.4817C103.551 95.0209 103.136 97.1523 101.538 98.2179C99.9391 99.2836 97.8078 98.8691 96.7422 97.2707C95.6765 95.7314 96.0909 93.6001 97.6894 92.5344C99.2287 91.4687 101.419 91.8832 102.485 93.4817Z" fill="#1B429C" fill-opacity="0.95"/>
<path d="M77.3237 98.1586C78.3894 99.6979 77.975 101.829 76.3765 102.895C74.778 103.961 72.6467 103.546 71.581 101.948C70.5154 100.408 70.9298 98.2771 72.5283 97.2114C74.0676 96.2049 76.2581 96.6194 77.3237 98.1586Z" fill="#1B429C" fill-opacity="0.95"/>
<path d="M92.0653 88.6861C93.427 90.6398 92.8941 93.3632 90.8812 94.6656C88.8683 95.9681 86.145 95.4945 84.7833 93.4816C83.4216 91.5279 83.9545 88.8045 85.9674 87.5021C87.9803 86.1404 90.7036 86.6732 92.0653 88.6861Z" fill="#1B429C" fill-opacity="0.95"/>
<path d="M77.5606 108.638C79.2775 111.183 78.6262 114.617 76.0213 116.334C73.4164 118.051 69.9234 117.341 68.2065 114.795C66.4896 112.249 67.1408 108.815 69.7458 107.098C72.3507 105.441 75.8437 106.092 77.5606 108.638Z" fill="#1B429C" fill-opacity="0.95"/>
<path d="M47.6629 36.2322C50.7691 36.2322 53.2872 33.7406 53.2872 30.6671C53.2872 27.5936 50.7691 25.102 47.6629 25.102C44.5567 25.102 42.0386 27.5936 42.0386 30.6671C42.0386 33.7406 44.5567 36.2322 47.6629 36.2322Z" fill="#1B429C" fill-opacity="0.95"/>
<path d="M76.1397 60.5648C76.1989 66.2483 71.5811 70.8069 65.8976 70.7477C60.1549 70.6885 55.5371 66.0707 55.4779 60.3872C55.4187 54.7037 57.3724 67.7876 65.8384 67.7876C74.6005 67.7876 76.0805 54.8813 76.1397 60.5648Z" fill="#1B429C" fill-opacity="0.95"/>
<path d="M44.7029 69.2085C48.6592 69.2085 51.8665 66.0808 51.8665 62.2225C51.8665 58.3643 48.6592 55.2366 44.7029 55.2366C40.7466 55.2366 37.5393 58.3643 37.5393 62.2225C37.5393 66.0808 40.7466 69.2085 44.7029 69.2085Z" fill="#1B429C" fill-opacity="0.95"/>
<path d="M86.5 69.2085C90.4563 69.2085 93.6636 66.0808 93.6636 62.2225C93.6636 58.3643 90.4563 55.2366 86.5 55.2366C82.5437 55.2366 79.3364 58.3643 79.3364 62.2225C79.3364 66.0808 82.5437 69.2085 86.5 69.2085Z" fill="#1B429C" fill-opacity="0.95"/>
</svg>
