<svg width="132" height="132" viewBox="0 0 132 132" fill="none" xmlns="http://www.w3.org/2000/svg">
<g clip-path="url(#clip0_404_364)">
<path d="M130.109 96.1113C125.439 87.6783 104.987 82.3074 86.9286 81.289C85.2964 79.5417 83.6398 77.7038 81.9413 75.7716C66.4215 58.0267 60.1368 32.2394 57.7897 18.5785C57.5107 15.6837 57.2038 13.2773 56.9457 11.4847C56.7364 10.0582 56.297 7.08331 53.2035 7.08331C52.213 7.08331 51.2574 7.5088 50.5773 8.26561C49.4752 9.52463 49.6392 10.8778 49.8345 12.4403C50.0542 14.2329 50.3855 16.6324 50.8563 19.3701C52.1781 33.2403 52.8024 59.6485 42.1269 80.6264C41.0143 82.8131 39.9053 84.9126 38.8032 86.9145C18.8262 92.7249 2.7065 103.087 0.34539 111.68C-0.509072 114.791 0.233787 117.773 2.44144 120.082C5.0118 122.767 8.04602 124.127 11.4604 124.127C20.9118 124.127 31.685 113.602 43.4801 92.8539C48.7324 91.4728 53.9464 90.5102 58.9859 90.0011C60.9495 89.8023 64.1267 89.3872 66.0797 89.0873C71.4611 88.2573 77.5504 87.9224 83.8072 88.1282C98.2877 103.181 110.128 110.812 119.001 110.812C123.765 110.808 127.709 108.485 130.102 104.272C131.573 101.664 131.58 98.7619 130.109 96.1113ZM11.4569 117.152C9.97815 117.152 8.71564 116.552 7.47754 115.258C6.97183 114.732 6.86023 114.278 7.06949 113.532C8.28666 109.106 18.5123 101.521 33.4567 96.0137C25.0132 109.336 16.9324 117.152 11.4569 117.152ZM65.009 82.2028C63.1536 82.4888 60.1403 82.8794 58.278 83.0747C54.8915 83.4095 51.4109 83.9431 47.8988 84.6615C48.0453 84.3755 48.1918 84.0861 48.3383 83.7966C53.5732 73.5117 56.8167 61.1795 58.0164 47.0443C62.8188 60.4855 69.0825 71.6667 76.689 80.3648C76.9122 80.6229 77.1459 80.8845 77.3691 81.1495C72.9782 81.2542 68.8349 81.6134 65.009 82.2028ZM124.019 100.847C122.861 102.898 121.215 103.85 118.854 103.85H118.851C113.305 103.85 104.778 98.6015 94.5699 88.9757C110.369 90.9601 121.937 95.7417 124.012 99.4908C124.312 100.035 124.312 100.324 124.019 100.847Z" fill="#FF0A0A"/>
</g>
<defs>
<clipPath id="clip0_404_364">
<rect width="131.211" height="131.211" fill="white"/>
</clipPath>
</defs>
</svg>
