<svg width="146" height="145" viewBox="0 0 146 145" fill="none" xmlns="http://www.w3.org/2000/svg">
<g clip-path="url(#clip0_74_1356)">
<path d="M24.1944 48.2621L21.7413 50.6163L0.89032 70.6274L20.9014 91.4785L23.2557 93.9315L71.5178 144.219L91.1423 125.385L42.8802 75.0975L46.5598 71.5661L43.0284 67.8865L93.3161 19.6244L74.4821 -6.79493e-05L24.1944 48.2621ZM45.1356 82.3579L41.456 85.8893C40.7778 86.5402 40.7557 87.6146 41.4066 88.2929C42.0576 88.9712 43.132 88.9933 43.8103 88.3423L47.4899 84.8109L52.1984 89.7171L44.8392 96.7798C44.1609 97.4308 44.1388 98.5052 44.7898 99.1835C45.4407 99.8617 46.5152 99.8838 47.1934 99.2329L54.5526 92.1701L59.2611 97.0762L55.5815 100.608C54.9033 101.259 54.8812 102.333 55.5321 103.011C56.1831 103.69 57.2575 103.712 57.9358 103.061L61.6154 99.5293L66.3239 104.435L58.9647 111.498C58.2864 112.149 58.2643 113.224 58.9153 113.902C59.5662 114.58 60.6407 114.602 61.3189 113.951L68.6781 106.888L73.3866 111.795L69.707 115.326C69.0288 115.977 69.0067 117.051 69.6576 117.73C70.3086 118.408 71.383 118.43 72.0613 117.779L75.7409 114.248L80.4494 119.154L73.0902 126.217C72.4119 126.867 72.3898 127.942 73.0408 128.62C73.6917 129.298 74.7662 129.321 75.4444 128.67L82.8036 121.607L86.335 125.286L71.6166 139.412L25.7088 91.5773L40.4271 77.4518L45.1356 82.3579ZM41.7525 71.4673L40.5259 72.6445L23.3545 89.1242L5.69763 70.7263L24.0956 53.0694L40.5753 70.2408L41.7525 71.4673ZM88.5088 19.5256L84.8292 23.057L77.7665 15.6978C77.1155 15.0195 76.0411 14.9974 75.3628 15.6484C74.6846 16.2993 74.6625 17.3738 75.3134 18.052L82.3762 25.4112L77.4701 30.1197L73.9387 26.4401C73.2877 25.7619 72.2133 25.7398 71.535 26.3907C70.8568 27.0417 70.8347 28.1161 71.4856 28.7944L75.017 32.474L70.1109 37.1825L63.0481 29.8233C62.3972 29.145 61.3227 29.1229 60.6445 29.7739C59.9662 30.4248 59.9441 31.4993 60.5951 32.1775L67.6578 39.5367L62.7517 44.2452L59.2203 40.5656C58.5694 39.8874 57.4949 39.8653 56.8167 40.5162C56.1384 41.1672 56.1163 42.2416 56.7673 42.9199L60.2986 46.5995L55.3925 51.308L48.3298 43.9488C47.6788 43.2705 46.6044 43.2484 45.9261 43.8994C45.2478 44.5503 45.2257 45.6248 45.8767 46.3031L52.9395 53.6622L48.0333 58.3707L44.502 54.6911C43.851 54.0129 42.7766 53.9908 42.0983 54.6417C41.42 55.2927 41.3979 56.3671 42.0489 57.0454L45.5803 60.725L40.6741 65.4335L26.5486 50.7151L74.3833 4.80724L88.5088 19.5256Z" fill="#1B429C"/>
<circle cx="23" cy="72" r="4" fill="#2A85D9"/>
</g>
<defs>
<clipPath id="clip0_74_1356">
<rect width="102" height="102" fill="white" transform="translate(0.89032 70.6274) rotate(-43.8225)"/>
</clipPath>
</defs>
</svg>
