<svg width="141" height="141" viewBox="0 0 141 141" fill="none" xmlns="http://www.w3.org/2000/svg">
<g clip-path="url(#clip0_75_1549)">
<path d="M11.25 93C12.4926 93 13.5 91.9926 13.5 90.75C13.5 89.5074 12.4926 88.5 11.25 88.5C10.0074 88.5 9 89.5074 9 90.75C9 91.9926 10.0074 93 11.25 93Z" fill="#1B429C"/>
<path d="M132 90.75C132 87.0282 128.972 84 125.25 84C121.528 84 118.5 87.0282 118.5 90.75C118.5 94.4718 121.528 97.5 125.25 97.5C128.972 97.5 132 94.4718 132 90.75ZM123 90.75C123 89.5092 124.009 88.5 125.25 88.5C126.491 88.5 127.5 89.5092 127.5 90.75C127.5 91.9908 126.491 93 125.25 93C124.009 93 123 91.9908 123 90.75Z" fill="#1B429C"/>
<path d="M126.477 40.5H87.7281C86.4852 40.5 85.4781 41.5071 85.4781 42.75C85.4781 43.9929 86.4852 45 87.7281 45H126.477C132.004 45 136.5 49.4961 136.5 55.0227V126.477C136.5 132.004 132.004 136.5 126.477 136.5H14.5227C8.9961 136.5 4.5 132.004 4.5 126.477V55.0227C4.5 49.4961 8.9961 45 14.5227 45H57C58.2429 45 59.25 43.9929 59.25 42.75C59.25 41.5071 58.2429 40.5 57 40.5H14.5227C6.5148 40.5 0 47.0148 0 55.0227V126.477C0 134.485 6.5148 141 14.5227 141H126.477C134.485 141 141 134.485 141 126.477V55.0227C141 47.0148 134.485 40.5 126.477 40.5Z" fill="#1B429C"/>
<path d="M138.75 0H47.25C46.0071 0 45 1.0071 45 2.25V33.75C45 34.9929 46.0071 36 47.25 36H63.75V51.75C63.75 52.6599 64.2981 53.4807 65.139 53.8287C65.4174 53.9442 65.7096 54 65.9994 54C66.585 54 67.1604 53.7714 67.5912 53.3412L84.9318 36H138.75C139.993 36 141 34.9929 141 33.75V2.25C141 1.0071 139.993 0 138.75 0ZM136.5 31.5H84C83.4033 31.5 82.8312 31.737 82.4088 32.1588L68.25 46.3182V33.75C68.25 32.5071 67.2429 31.5 66 31.5H49.5V4.5H136.5V31.5Z" fill="#1B429C"/>
<path d="M40.1904 90.75C40.1904 91.9929 41.1975 93 42.4404 93H89.5596C90.8025 93 91.8096 91.9929 91.8096 90.75C91.8096 89.5071 90.8025 88.5 89.5596 88.5H42.4404C41.1975 88.5 40.1904 89.5071 40.1904 90.75Z" fill="#2A85D9"/>
<path d="M51.4404 75H45.75C37.0656 75 30 82.0656 30 90.75C30 99.4344 37.0656 106.5 45.75 106.5H51.4404C55.9122 106.5 60.1899 104.587 63.1764 101.251C64.0053 100.325 63.9267 98.9025 63.0009 98.0736C62.0748 97.2447 60.6525 97.3236 59.8236 98.2491C57.6897 100.633 54.6339 102 51.4404 102H45.75C39.5466 102 34.5 96.9534 34.5 90.75C34.5 84.5466 39.5466 79.5 45.75 79.5H51.4404C54.6339 79.5 57.6894 80.8674 59.8236 83.2509C60.6525 84.1764 62.0748 84.2553 63.0009 83.4264C63.9267 82.5972 64.0053 81.1749 63.1764 80.2491C60.1893 76.9131 55.9119 75 51.4404 75Z" fill="#2A85D9"/>
<path d="M68.8236 80.2491C67.9947 81.1749 68.0733 82.5975 68.9991 83.4264C69.9255 84.2553 71.3475 84.1764 72.1764 83.2509C74.3103 80.8671 77.3661 79.5 80.5596 79.5H86.25C92.4534 79.5 97.5 84.5466 97.5 90.75C97.5 96.9534 92.4534 102 86.25 102H80.5596C77.3658 102 74.3103 100.633 72.1764 98.2491C71.3478 97.3239 69.9255 97.2444 68.9991 98.0736C68.0733 98.9025 67.9947 100.325 68.8236 101.251C71.8101 104.587 76.0878 106.5 80.5596 106.5H86.25C94.9344 106.5 102 99.4344 102 90.75C102 82.0656 94.9344 75 86.25 75H80.5596C76.0878 75 71.8101 76.9134 68.8236 80.2491Z" fill="#2A85D9"/>
<path d="M57 54C58.2429 54 59.25 52.9929 59.25 51.75C59.25 50.5071 58.2429 49.5 57 49.5H20.25C19.0071 49.5 18 50.5071 18 51.75V129.75C18 130.993 19.0071 132 20.25 132H111.75C112.993 132 114 130.993 114 129.75V51.75C114 50.5071 112.993 49.5 111.75 49.5H78.7281C77.4852 49.5 76.4781 50.5071 76.4781 51.75C76.4781 52.9929 77.4852 54 78.7281 54H109.5V127.5H22.5V54H57Z" fill="#1B429C"/>
</g>
<defs>
<clipPath id="clip0_75_1549">
<rect width="141" height="141" fill="white"/>
</clipPath>
</defs>
</svg>
