<svg width="186" height="197" viewBox="0 0 186 197" fill="none" xmlns="http://www.w3.org/2000/svg">
<g clip-path="url(#clip0_75_1530)">
<path d="M160.34 71.7723C157.627 71.7723 154.993 72.2201 152.475 73.1069C147.891 55.5521 132.803 43.1672 115.345 43.1672C98.1016 43.1672 82.948 55.5271 78.2942 72.9265C75.6367 72.3063 72.8903 71.9468 70.0639 71.9468C52.6083 71.9468 37.523 84.3282 32.9398 101.886C30.4217 100.997 27.788 100.548 25.0746 100.548C11.2487 100.548 0 112.497 0 127.187C0 141.881 11.2487 153.833 25.0746 153.833H109.019C120.59 153.833 130.003 143.829 130.003 131.534C130.003 129.277 129.676 127.103 129.087 125.05H160.34C174.166 125.05 185.412 113.102 185.412 98.4113C185.412 83.7209 174.166 71.7723 160.34 71.7723ZM109.019 147.676H25.0746C14.4427 147.676 5.79412 138.484 5.79412 127.187C5.79412 115.894 14.4427 106.705 25.0746 106.705C28.1104 106.705 31.0104 107.432 33.698 108.869C34.5129 109.305 35.4719 109.305 36.2923 108.872C37.1099 108.439 37.6873 107.622 37.8512 106.666C40.6663 90.1148 54.215 78.103 70.0639 78.103C88.0037 78.103 102.693 93.6048 102.803 112.66C102.809 113.57 103.194 114.433 103.853 115.013C104.515 115.593 105.389 115.831 106.226 115.669C107.154 115.488 108.094 115.395 109.019 115.395C117.393 115.395 124.208 122.636 124.208 131.534C124.208 140.435 117.393 147.676 109.019 147.676ZM160.34 118.894H126.291C122.403 112.926 115.841 109.064 108.447 109.248C107.126 93.4416 97.2679 80.1863 83.8484 74.6857C87.7739 59.8614 100.667 49.3235 115.345 49.3235C131.196 49.3235 144.748 61.3356 147.563 77.8863C147.727 78.8424 148.304 79.6599 149.119 80.0927C149.934 80.5258 150.899 80.5286 151.713 80.09C154.404 78.6559 157.307 77.9285 160.34 77.9285C170.969 77.9285 179.618 87.1179 179.618 98.4113C179.618 109.705 170.969 118.894 160.34 118.894Z" fill="#2A85D9"/>
</g>
<defs>
<clipPath id="clip0_75_1530">
<rect width="185.412" height="197" fill="white"/>
</clipPath>
</defs>
</svg>
