<svg width="165" height="165" viewBox="0 0 165 165" fill="none" xmlns="http://www.w3.org/2000/svg">
<g clip-path="url(#clip0_75_1470)">
<path d="M82.4964 11.8115C43.521 11.8115 11.8116 43.5209 11.8116 82.4963C11.8116 121.472 43.521 153.181 82.4964 153.181C121.472 153.181 153.181 121.472 153.181 82.4963C153.181 43.5209 121.472 11.8115 82.4964 11.8115ZM144.341 62.0108H139.995C138.656 62.0108 137.314 62.3276 136.116 62.9264L134.523 63.7234C133.518 64.2254 132.314 64.1504 131.379 63.5277L125.372 59.5229C124.917 59.22 124.383 59.0579 123.836 59.0579H123.103L125.153 55.9822C125.257 55.8279 125.428 55.736 125.614 55.736H129.926V56.9393C129.926 58.4682 131.165 59.7076 132.694 59.7076C134.058 59.7076 135.188 58.7215 135.418 57.4244L136.428 57.9294C137.422 58.4266 138.535 58.6893 139.646 58.6893H143.139C143.57 59.7817 143.969 60.8903 144.341 62.0108ZM123.652 36.4732C123.652 36.4249 123.672 36.3772 123.706 36.3427L125.794 34.2547C125.863 34.1851 125.928 34.1123 125.989 34.0369C127.21 35.1336 128.39 36.2741 129.524 37.4584L127.784 39.1983C126.703 40.2795 126.703 42.0323 127.784 43.1132C128.325 43.6536 129.034 43.924 129.742 43.924C130.45 43.924 131.159 43.6539 131.699 43.1132L133.188 41.625C136.06 45.1799 138.566 49.0406 140.65 53.1521H139.646C139.39 53.1521 139.133 53.0912 138.903 52.9768L134.634 50.8418C133.792 50.4212 132.851 50.1992 131.91 50.1992H125.613C123.572 50.1992 121.678 51.213 120.546 52.911L116.449 59.0579H113.87C112.751 59.0579 111.84 58.1472 111.84 57.028V52.1431C111.84 52.0638 111.891 51.9932 111.967 51.9681L117.368 50.1676C118.715 49.7187 119.957 48.951 120.96 47.9475C122.696 46.2114 123.652 43.904 123.652 41.4493V36.4732ZM39.0028 34.0369C39.0637 34.112 39.1282 34.1845 39.1984 34.2544L42.1513 37.2073C42.6702 37.7268 43.3747 38.0182 44.1088 38.0182C44.8429 38.0182 45.5474 37.7265 46.0662 37.2073L50.2418 33.0311C50.8341 32.4388 51.6224 32.1123 52.4606 32.1123H56.1048V32.297C56.1048 33.2564 56.6017 34.1474 57.4177 34.6518C58.2337 35.1564 59.253 35.2022 60.1112 34.773L64.9429 32.3566C65.263 32.1968 65.621 32.1123 65.979 32.1123H75.8549C74.7749 32.8165 74.0244 33.9396 73.7927 35.2767C73.4669 37.1587 74.2516 38.9863 75.841 40.0459L79.6457 42.5824C79.6969 42.6169 79.7275 42.6739 79.7275 42.7358V44.1087C79.7275 44.2105 79.6447 44.2933 79.5429 44.2933H78.2715C76.4475 44.2933 74.7327 45.0036 73.4427 46.2933L54.8267 64.9093C54.7922 64.9438 54.7448 64.9631 54.6962 64.9631H50.0143C45.2312 64.9631 41.3402 68.8542 41.3402 73.6372V74.9853L38.2713 74.3713C37.5397 74.225 36.9294 73.7584 36.5955 73.0916L34.7728 69.4468C34.3039 68.5087 33.3454 67.916 32.2968 67.916H30.6478C29.2952 67.916 28.099 67.0537 27.6716 65.7707L23.817 54.2069C27.5353 46.5257 32.7202 39.682 39.0028 34.0369ZM82.4964 147.644C46.5738 147.644 17.3482 118.419 17.3482 82.4963C17.3482 75.381 18.4987 68.5303 20.6166 62.1156L22.4187 67.5219C23.5946 71.0504 26.8718 73.4271 30.5856 73.4529L31.6429 75.5679C32.7457 77.7742 34.7657 79.3165 37.1846 79.8009L47.7417 81.912C48.3353 82.0306 48.8751 82.3197 49.3031 82.7477C50.1619 83.6068 51.1712 84.2617 52.2711 84.6877L50.3408 90.4795C50.2467 90.7618 50.1986 91.057 50.1986 91.3551V97.2609C50.1986 99.9763 51.4958 102.571 53.6681 104.2L60.7551 109.515C61.5408 110.104 62.01 111.043 62.01 112.025V127.954C62.01 129.673 62.5137 131.337 63.467 132.766L67.7234 139.151C68.65 140.54 70.1994 141.37 71.8694 141.37H72.8987C74.832 141.37 76.4053 139.796 76.4053 137.863V132.801C76.4053 131.568 76.8851 130.409 77.7565 129.538L83.2209 124.074C84.3295 122.965 85.177 121.593 85.6733 120.106L87.4023 114.919C87.4274 114.843 87.498 114.793 87.5773 114.793H89.0494C91.6797 114.793 93.9623 113.011 94.5998 110.459L96.5881 102.506C97.0725 100.568 96.496 98.4858 95.0828 97.0733L91.224 93.2145C90.1438 92.1343 88.7068 91.5388 87.1786 91.5388H83.6424L73.5065 81.4029C72.4263 80.3226 70.9893 79.7271 69.4611 79.7271H55.984C55.9408 79.7261 55.8979 79.7261 55.8547 79.7271H55.3791C54.5631 79.7271 53.7951 79.4093 53.2183 78.8318C52.0149 77.6282 50.4964 76.8157 48.8274 76.4822L46.8767 76.0919V73.6375C46.8767 71.9076 48.2841 70.5 50.0143 70.5H53.1519V70.6846C53.1519 72.2135 54.3913 73.4529 55.9201 73.4529C57.449 73.4529 58.6884 72.2135 58.6884 70.6846V68.8732C58.7058 68.8561 58.7248 68.8413 58.7422 68.8245L77.3582 50.2085C77.6022 49.9646 77.9267 49.8302 78.2718 49.8302H79.5432C82.6978 49.8302 85.2644 47.2636 85.2644 44.109V42.7361C85.2644 40.8187 84.3118 39.0391 82.7169 37.976L80.3801 36.4178L84.8648 35.2963C86.8386 34.8032 88.2173 33.0379 88.2173 31.0015C88.2173 28.5613 86.2318 26.5758 83.7916 26.5758H65.979C64.766 26.5758 63.5514 26.8623 62.4666 27.405L60.6375 28.3196C59.7915 27.2577 58.4876 26.5758 57.0275 26.5758H52.4603C50.1435 26.5758 47.965 27.4778 46.3266 29.1165L44.1081 31.335L43.2806 30.5078C54.1983 22.2523 67.7844 17.348 82.4958 17.348C97.2072 17.348 110.793 22.252 121.71 30.5074L119.79 32.4275C118.709 33.5084 118.115 34.9447 118.115 36.4729V41.4487C118.115 42.4245 117.734 43.342 117.045 44.032C116.646 44.4309 116.152 44.7358 115.617 44.9146L110.215 46.7151C107.875 47.495 106.303 49.6761 106.303 52.1431V57.0277C106.303 58.4224 106.689 59.7263 107.35 60.8494C106.227 61.6054 105.242 62.5787 104.467 63.7421L101.854 67.6608C100.901 69.0904 100.397 70.7542 100.397 72.4726V77.7548C100.397 79.4731 100.901 81.137 101.854 82.5666L105.015 87.3074C106.627 89.7263 109.325 91.1701 112.232 91.1701H119.579C120.932 91.1701 122.128 92.0318 122.555 93.3154L123.215 95.2944C123.749 96.8967 124.02 98.5658 124.02 100.255V102.345C124.02 105.106 124.404 107.852 125.163 110.508L129.91 127.124C118.022 139.748 101.165 147.644 82.4964 147.644ZM64.0777 105.086L56.9907 99.7707C56.205 99.1813 55.7358 98.2428 55.7358 97.2609V91.8043L57.9159 85.2649H69.4618C69.5104 85.2649 69.5581 85.2845 69.5923 85.3187L80.539 96.2654C81.0578 96.7849 81.7623 97.0762 82.4964 97.0762H87.1789C87.2276 97.0762 87.2753 97.0959 87.3095 97.1301L91.1683 100.989C91.214 101.035 91.2324 101.102 91.2169 101.164L89.2286 109.117C89.2079 109.199 89.1345 109.257 89.0497 109.257H87.5776C85.1113 109.257 82.9302 110.829 82.1497 113.169L80.4207 118.355C80.1954 119.032 79.8097 119.655 79.306 120.159L73.8417 125.623C71.9245 127.54 70.8688 130.089 70.8688 132.801V133.888L68.0734 129.695C67.7286 129.178 67.5468 128.576 67.5468 127.955V112.026C67.5472 109.309 66.2504 106.715 64.0777 105.086ZM130.488 108.988C129.871 106.827 129.558 104.592 129.558 102.345V100.255C129.558 97.9699 129.191 95.7118 128.469 93.5436L127.809 91.5645C126.627 88.0174 123.32 85.6336 119.58 85.6336H112.233C111.182 85.6336 110.206 85.1112 109.623 84.2365L106.462 79.4954C106.117 78.9781 105.935 78.3765 105.935 77.7551V72.4729C105.935 71.8512 106.117 71.2495 106.462 70.7326L109.075 66.8136C110.001 65.4243 111.551 64.5948 113.221 64.5948H122.999L128.308 68.1342C130.891 69.8564 134.222 70.0639 136.999 68.6753L138.593 67.8783C139.026 67.6618 139.511 67.5474 139.996 67.5474H145.912C147.043 72.3495 147.645 77.3539 147.645 82.4963C147.645 97.3631 142.636 111.08 134.223 122.055L130.488 108.988Z" fill="#1B429C"/>
<path d="M28.3903 24.455C28.3803 24.4443 28.37 24.434 28.3596 24.4237C27.2784 23.3425 25.505 23.3425 24.4238 24.4237C23.3426 25.5049 23.3426 27.2783 24.4238 28.3595C24.4338 28.3698 24.4444 28.3801 24.4548 28.3901C24.9913 28.9103 25.6913 29.17 26.3916 29.17C27.0919 29.17 27.7912 28.91 28.3284 28.3901C28.3493 28.3698 28.37 28.3492 28.3903 28.3283C29.4302 27.2545 29.4302 25.5284 28.3903 24.455Z" fill="#2A85D9"/>
<path d="M26.3913 11.8115C18.3521 11.8115 11.8114 18.3522 11.8114 26.3915C11.8114 27.9203 13.0508 29.1597 14.5797 29.1597C16.1085 29.1597 17.3479 27.9203 17.3479 26.3915C17.3479 21.405 21.4049 17.3484 26.391 17.3484C27.9198 17.3484 29.1593 16.1089 29.1593 14.5801C29.1593 13.0513 27.9205 11.8115 26.3913 11.8115Z" fill="#2A85D9"/>
<path d="M26.3913 0C11.8394 0 0 11.8394 0 26.3913C0 27.9201 1.23943 29.1596 2.76826 29.1596C4.29709 29.1596 5.53652 27.9201 5.53652 26.3913C5.53652 14.8919 14.8919 5.53652 26.3913 5.53652C27.9201 5.53652 29.1596 4.29709 29.1596 2.76826C29.1599 1.23943 27.9204 0 26.3913 0Z" fill="#2A85D9"/>
<path d="M140.577 136.641C140.566 136.63 140.556 136.62 140.546 136.61C139.472 135.57 137.746 135.57 136.673 136.61C136.652 136.63 136.631 136.651 136.611 136.672C135.57 137.745 135.57 139.472 136.611 140.545C136.62 140.556 136.631 140.566 136.641 140.576C137.181 141.117 137.895 141.387 138.609 141.387C139.323 141.387 140.036 141.117 140.577 140.576C141.658 139.495 141.658 137.722 140.577 136.641Z" fill="#2A85D9"/>
<path d="M150.42 135.84C148.891 135.84 147.652 137.08 147.652 138.609C147.652 143.595 143.595 147.652 138.609 147.652C137.08 147.652 135.84 148.891 135.84 150.42C135.84 151.949 137.08 153.188 138.609 153.188C146.648 153.188 153.189 146.648 153.189 138.608C153.188 137.079 151.949 135.84 150.42 135.84Z" fill="#2A85D9"/>
<path d="M162.232 135.84C160.703 135.84 159.463 137.08 159.463 138.609C159.463 150.108 150.108 159.463 138.609 159.463C137.08 159.463 135.84 160.703 135.84 162.232C135.84 163.76 137.08 165 138.609 165C153.161 165 165 153.161 165 138.609C165 137.079 163.761 135.84 162.232 135.84Z" fill="#2A85D9"/>
<path d="M70.2079 36.9648C69.5244 35.5971 67.8615 35.0425 66.4938 35.7267L60.588 38.6796C59.2203 39.3631 58.666 41.026 59.3498 42.3937C59.8348 43.3637 60.8123 43.9245 61.828 43.9245C62.2441 43.9245 62.6662 43.8304 63.0639 43.6318L68.9698 40.6789C70.3375 39.9954 70.8918 38.3325 70.2079 36.9648Z" fill="#1B429C"/>
<path d="M112.025 32.4819C110.497 32.4819 109.257 33.7214 109.257 35.2502V38.2031C109.257 39.7319 110.496 40.9714 112.025 40.9714C113.554 40.9714 114.794 39.7319 114.794 38.2031V35.2502C114.794 33.7214 113.554 32.4819 112.025 32.4819Z" fill="#1B429C"/>
</g>
<defs>
<clipPath id="clip0_75_1470">
<rect width="165" height="165" fill="white"/>
</clipPath>
</defs>
</svg>
