<svg width="135" height="135" viewBox="0 0 135 135" fill="none" xmlns="http://www.w3.org/2000/svg">
<path d="M124.88 3.375H10.1205C4.5405 3.375 0 7.9155 0 13.4978V86.625V96.7523C0 102.332 4.5405 106.875 10.1205 106.875H50.2965C50.616 110.817 48.906 114.71 45.7447 116.937L41.6925 119.795C41.4338 119.975 41.2178 120.193 41.04 120.436C38.2163 120.73 36 123.1 36 126C36 129.101 38.5223 131.625 41.625 131.625H93.375C96.4778 131.625 99 129.101 99 126C99 123.1 96.786 120.733 93.9622 120.434C93.7868 120.195 93.573 119.979 93.321 119.801L89.262 116.941C86.0985 114.712 84.3862 110.819 84.7057 106.875H124.88C130.46 106.875 135 102.334 135 96.7523V86.625V13.4978C135 7.9155 130.46 3.375 124.88 3.375ZM4.5 13.4978C4.5 10.3973 7.02225 7.875 10.1205 7.875H124.88C127.978 7.875 130.5 10.3973 130.5 13.4978V82.125H4.5V13.4978ZM93.375 127.125H41.625C41.0153 127.125 40.5 126.61 40.5 126C40.5 125.39 41.0153 124.875 41.625 124.875H43.2585H91.7415H93.375C93.9847 124.875 94.5 125.39 94.5 126C94.5 126.61 93.9847 127.125 93.375 127.125ZM80.1945 106.88C79.8952 112.12 82.1812 117.268 86.3347 120.375H48.6698C52.8232 117.268 55.1093 112.118 54.81 106.875L80.1945 106.88ZM130.5 96.7523C130.5 99.8527 127.978 102.375 124.88 102.375H85.6305H49.3717H10.1205C7.02225 102.375 4.5 99.8527 4.5 96.7523V86.625H130.5V96.7523Z" fill="#2A85D9"/>
<path d="M11.25 25.8751C11.826 25.8751 12.402 25.6546 12.8408 25.2158L21.8408 16.2158C22.7205 15.3361 22.7205 13.9141 21.8408 13.0343C20.961 12.1546 19.539 12.1546 18.6593 13.0343L9.65926 22.0343C8.77951 22.9141 8.77951 24.3361 9.65926 25.2158C10.098 25.6546 10.674 25.8751 11.25 25.8751Z" fill="#1B429C"/>
<path d="M11.25 37.1251C11.826 37.1251 12.402 36.9046 12.8408 36.4658L17.3408 31.9658C18.2205 31.0861 18.2205 29.6641 17.3408 28.7843C16.461 27.9046 15.039 27.9046 14.1593 28.7843L9.65926 33.2843C8.77951 34.1641 8.77951 35.5861 9.65926 36.4658C10.098 36.9046 10.674 37.1251 11.25 37.1251Z" fill="#1B429C"/>
<path d="M18.6525 24.2775C18.2452 24.705 18 25.29 18 25.875C18 26.46 18.2452 27.045 18.6525 27.4725C19.0777 27.8775 19.6402 28.125 20.25 28.125C20.835 28.125 21.42 27.8775 21.8475 27.4725C22.2525 27.045 22.5 26.46 22.5 25.875C22.5 25.29 22.2525 24.705 21.8475 24.2775C20.9925 23.445 19.5075 23.445 18.6525 24.2775Z" fill="#1B429C"/>
<path d="M23.1593 22.9658C23.598 23.4046 24.174 23.6251 24.75 23.6251C25.326 23.6251 25.902 23.4046 26.3408 22.9658L33.0908 16.2158C33.9705 15.3361 33.9705 13.9141 33.0908 13.0343C32.211 12.1546 30.789 12.1546 29.9093 13.0343L23.1593 19.7843C22.2795 20.6641 22.2795 22.0861 23.1593 22.9658Z" fill="#1B429C"/>
<path d="M29.9093 24.2843L9.65926 44.5343C8.77951 45.4141 8.77951 46.8361 9.65926 47.7158C10.098 48.1546 10.674 48.3751 11.25 48.3751C11.826 48.3751 12.402 48.1546 12.8408 47.7158L33.0908 27.4658C33.9705 26.5861 33.9705 25.1641 33.0908 24.2843C32.211 23.4046 30.789 23.4046 29.9093 24.2843Z" fill="#1B429C"/>
<path d="M34.4025 19.7775C33.9952 20.205 33.75 20.7675 33.75 21.375C33.75 21.9825 33.9952 22.545 34.4025 22.9725C34.8277 23.3775 35.3902 23.625 36 23.625C36.6075 23.625 37.17 23.3775 37.5975 22.9725C38.0025 22.545 38.25 21.9825 38.25 21.375C38.25 20.7675 38.0025 20.205 37.5975 19.7775C36.765 18.945 35.235 18.945 34.4025 19.7775Z" fill="#1B429C"/>
<path d="M41.1593 13.0343L38.9093 15.2843C38.0295 16.1641 38.0295 17.5861 38.9093 18.4658C39.348 18.9046 39.924 19.1251 40.5 19.1251C41.076 19.1251 41.652 18.9046 42.0908 18.4658L44.3408 16.2158C45.2205 15.3361 45.2205 13.9141 44.3408 13.0343C43.461 12.1546 42.039 12.1546 41.1593 13.0343Z" fill="#1B429C"/>
</svg>
