<svg width="144" height="144" viewBox="0 0 144 144" fill="none" xmlns="http://www.w3.org/2000/svg">
<path d="M122.764 79.3614L117.033 75.1151C117.687 70.704 117.692 66.2698 117.047 61.8975L122.764 57.6616C123.595 57.0457 123.901 55.9429 123.505 54.9872L117.982 41.6557C117.586 40.6997 116.59 40.1355 115.568 40.2885L108.53 41.3356C105.894 37.7882 102.756 34.6565 99.1733 31.9992L100.223 24.9438C100.376 23.9203 99.812 22.9247 98.8563 22.529L85.5248 17.0072C84.5691 16.6112 83.466 16.9166 82.8504 17.748L81.47 19.6107V7.06472C81.4697 3.16912 78.3006 0 74.405 0H69.5951C65.6995 0 62.5304 3.16912 62.5304 7.06472V19.6104L61.15 17.7474C60.5343 16.9161 59.4315 16.6109 58.4756 17.0066L45.144 22.5284C44.1881 22.9244 43.6245 23.92 43.7769 24.9432L44.824 31.9809C41.2769 34.6171 38.1451 37.7553 35.4882 41.3376L28.4327 40.2877C27.409 40.1349 26.4136 40.6991 26.0179 41.6548L20.4956 54.9863C20.0996 55.9423 20.405 57.0451 21.2364 57.6608L26.9674 61.9071C26.3135 66.3182 26.3087 70.7524 26.9531 75.1247L21.2364 79.3606C20.405 79.9765 20.0996 81.0793 20.4956 82.035L26.0179 95.3668C26.4139 96.3228 27.4107 96.8867 28.4327 96.734L35.4704 95.6869C38.1066 99.2343 41.2448 102.366 44.8271 105.023L43.7769 112.079C43.6247 113.102 44.1884 114.098 45.144 114.493L58.4756 120.016C59.4315 120.412 60.5343 120.106 61.15 119.275L62.5304 117.412V117.695C62.5304 117.914 62.5621 118.132 62.6254 118.342L69.8403 142.393C70.1266 143.347 71.0044 144 72 144C72.9957 144 73.8734 143.347 74.1598 142.393L81.3747 118.343C81.4377 118.133 81.4697 117.915 81.4697 117.695V117.413L82.8501 119.276C83.2855 119.863 83.9641 120.188 84.6622 120.188C84.9513 120.188 85.2441 120.132 85.5245 120.017L98.856 114.494C99.812 114.098 100.376 113.103 100.223 112.08L99.1761 105.042C102.724 102.406 105.856 99.2669 108.512 95.6852L115.568 96.7351C116.591 96.8878 117.587 96.3236 117.982 95.3679L123.505 82.0364C123.901 81.0802 123.595 79.9774 122.764 79.3614ZM67.0396 7.06472C67.0396 5.65566 68.186 4.50928 69.5951 4.50928H74.405C75.8141 4.50928 76.9604 5.65566 76.9604 7.06472V12.0251H67.0399V7.06472H67.0396ZM67.0396 16.5344H76.9602V23.2658C73.6479 22.896 70.3291 22.8915 67.0396 23.2521V16.5344ZM62.5304 85.4297C58.7588 83.313 55.7573 79.9675 54.0858 75.9319C50.2889 66.7654 54.0726 56.3223 62.5304 51.5953V85.4297ZM72 133.899L67.8153 119.95H76.1845L72 133.899ZM76.9604 115.44H67.0399V49.7708C70.3691 48.8877 73.7806 48.9322 76.9604 49.7782V115.44ZM62.8541 46.431C50.6788 51.4744 44.8766 65.4826 49.9197 77.6576C52.2957 83.3946 56.8525 87.9995 62.5304 90.4545V95.9338C54.6627 93.2313 48.4181 87.388 45.198 79.6134C39.0766 64.8346 46.1197 47.8308 60.8985 41.7097C75.6774 35.5882 92.6806 42.631 98.8023 57.4099C101.768 64.5691 101.768 72.4545 98.8023 79.6134C95.8368 86.7727 90.2613 92.3482 83.1021 95.3139C82.5652 95.5361 82.0196 95.7395 81.47 95.9296V90.4489H81.4697C87.2106 87.9733 91.6828 83.4463 94.0807 77.6579C96.5236 71.7598 96.5236 65.2638 94.0807 59.3657C89.0373 47.1907 75.0294 41.3885 62.8541 46.431ZM81.4697 85.4294V51.6063C85.1443 53.6597 88.1823 56.9095 89.9143 61.0914C91.8962 65.8766 91.8962 71.147 89.9143 75.9322C88.2256 80.0089 85.2669 83.3133 81.4697 85.4294ZM114.49 92.0157L107.816 91.0226C106.968 90.8963 106.122 91.2617 105.633 91.9651C102.843 95.9754 99.4188 99.4067 95.456 102.163C94.7526 102.653 94.3873 103.499 94.5135 104.346L95.5038 111.002L85.4249 115.177L81.4697 109.838V100.668C82.6057 100.331 83.7307 99.9343 84.8273 99.4801C93.0994 96.0539 99.5417 89.611 102.968 81.3395C106.394 73.0676 106.394 63.9563 102.968 55.6847C95.8948 38.6089 76.2478 30.4712 59.172 37.5441C42.0961 44.6169 33.9582 64.2637 41.031 81.34C44.9508 90.8035 52.7476 97.7909 62.5298 100.667V109.839L58.574 115.177L48.4951 111.003L49.4885 104.329C49.6145 103.481 49.2495 102.635 48.546 102.146C44.5357 99.3552 41.1045 95.9313 38.3476 91.9688C37.8583 91.2653 37.0125 90.8997 36.1649 91.0263L29.5091 92.0166L25.3342 81.9377L30.7407 77.9318C31.4295 77.4217 31.7692 76.5652 31.6176 75.7215C30.7651 70.9701 30.7699 66.1224 31.6325 61.3139C31.7838 60.4704 31.4444 59.614 30.7556 59.1041L25.3336 55.0868L29.5085 45.0079L36.1826 46.001C37.03 46.127 37.8757 45.7619 38.3651 45.0588C41.1559 41.0482 44.5799 37.6169 48.5421 34.8604C49.2455 34.3713 49.6109 33.5253 49.4846 32.6779L48.4943 26.0221L58.5732 21.8472L62.5793 27.254C63.0895 27.9427 63.9453 28.2822 64.7891 28.1309C69.5399 27.2784 74.3873 27.2832 79.1967 28.1458C80.0396 28.2971 80.896 27.9574 81.4062 27.2689L85.4235 21.8469L95.5024 26.0218L94.509 32.6964C94.383 33.5438 94.7481 34.3896 95.4515 34.8789C99.4621 37.6695 102.893 41.0934 105.65 45.056C106.139 45.7594 106.986 46.1253 107.833 45.9984L114.488 45.0082L118.663 55.0868L113.257 59.0929C112.568 59.6031 112.228 60.4592 112.38 61.3027C113.232 66.0544 113.228 70.9017 112.365 75.7102C112.214 76.5537 112.553 77.4101 113.242 77.92L118.664 81.9374L114.49 92.0157Z" fill="#1B429C"/>
<mask id="mask0_74_1373" style="mask-type:alpha" maskUnits="userSpaceOnUse" x="20" y="0" width="104" height="144">
<path d="M122.764 79.3614L117.033 75.1151C117.687 70.704 117.692 66.2698 117.047 61.8975L122.764 57.6616C123.595 57.0457 123.901 55.9429 123.505 54.9872L117.982 41.6557C117.586 40.6997 116.59 40.1355 115.568 40.2885L108.53 41.3356C105.894 37.7882 102.756 34.6565 99.1733 31.9992L100.223 24.9438C100.376 23.9203 99.812 22.9247 98.8563 22.529L85.5248 17.0072C84.5691 16.6112 83.466 16.9166 82.8504 17.748L81.47 19.6107V7.06472C81.4697 3.16912 78.3006 0 74.405 0H69.5951C65.6995 0 62.5304 3.16912 62.5304 7.06472V19.6104L61.15 17.7474C60.5343 16.9161 59.4315 16.6109 58.4756 17.0066L45.144 22.5284C44.1881 22.9244 43.6245 23.92 43.7769 24.9432L44.824 31.9809C41.2769 34.6171 38.1451 37.7553 35.4882 41.3376L28.4327 40.2877C27.409 40.1349 26.4136 40.6991 26.0179 41.6548L20.4956 54.9863C20.0996 55.9423 20.405 57.0451 21.2364 57.6608L26.9674 61.9071C26.3135 66.3182 26.3087 70.7524 26.9531 75.1247L21.2364 79.3606C20.405 79.9765 20.0996 81.0793 20.4956 82.035L26.0179 95.3668C26.4139 96.3228 27.4107 96.8867 28.4327 96.734L35.4704 95.6869C38.1066 99.2343 41.2448 102.366 44.8271 105.023L43.7769 112.079C43.6247 113.102 44.1884 114.098 45.144 114.493L58.4756 120.016C59.4315 120.412 60.5343 120.106 61.15 119.275L62.5304 117.412V117.695C62.5304 117.914 62.5621 118.132 62.6254 118.342L69.8403 142.393C70.1266 143.347 71.0044 144 72 144C72.9957 144 73.8734 143.347 74.1598 142.393L81.3747 118.343C81.4377 118.133 81.4697 117.915 81.4697 117.695V117.413L82.8501 119.276C83.2855 119.863 83.9641 120.188 84.6622 120.188C84.9513 120.188 85.2441 120.132 85.5245 120.017L98.856 114.494C99.812 114.098 100.376 113.103 100.223 112.08L99.1761 105.042C102.724 102.406 105.856 99.2669 108.512 95.6852L115.568 96.7351C116.591 96.8878 117.587 96.3236 117.982 95.3679L123.505 82.0364C123.901 81.0802 123.595 79.9774 122.764 79.3614ZM67.0396 7.06472C67.0396 5.65566 68.186 4.50928 69.5951 4.50928H74.405C75.8141 4.50928 76.9604 5.65566 76.9604 7.06472V12.0251H67.0399V7.06472H67.0396ZM67.0396 16.5344H76.9602V23.2658C73.6479 22.896 70.3291 22.8915 67.0396 23.2521V16.5344ZM62.5304 85.4297C58.7588 83.313 55.7573 79.9675 54.0858 75.9319C50.2889 66.7654 54.0726 56.3223 62.5304 51.5953V85.4297ZM72 133.899L67.8153 119.95H76.1845L72 133.899ZM76.9604 115.44H67.0399V49.7708C70.3691 48.8877 73.7806 48.9322 76.9604 49.7782V115.44ZM62.8541 46.431C50.6788 51.4744 44.8766 65.4826 49.9197 77.6576C52.2957 83.3946 56.8525 87.9995 62.5304 90.4545V95.9338C54.6627 93.2313 48.4181 87.388 45.198 79.6134C39.0766 64.8346 46.1197 47.8308 60.8985 41.7097C75.6774 35.5882 92.6806 42.631 98.8023 57.4099C101.768 64.5691 101.768 72.4545 98.8023 79.6134C95.8368 86.7727 90.2613 92.3482 83.1021 95.3139C82.5652 95.5361 82.0196 95.7395 81.47 95.9296V90.4489H81.4697C87.2106 87.9733 91.6828 83.4463 94.0807 77.6579C96.5236 71.7598 96.5236 65.2638 94.0807 59.3657C89.0373 47.1907 75.0294 41.3885 62.8541 46.431ZM81.4697 85.4294V51.6063C85.1443 53.6597 88.1823 56.9095 89.9143 61.0914C91.8962 65.8766 91.8962 71.147 89.9143 75.9322C88.2256 80.0089 85.2669 83.3133 81.4697 85.4294ZM114.49 92.0157L107.816 91.0226C106.968 90.8963 106.122 91.2617 105.633 91.9651C102.843 95.9754 99.4188 99.4067 95.456 102.163C94.7526 102.653 94.3873 103.499 94.5135 104.346L95.5038 111.002L85.4249 115.177L81.4697 109.838V100.668C82.6057 100.331 83.7307 99.9343 84.8273 99.4801C93.0994 96.0539 99.5417 89.611 102.968 81.3395C106.394 73.0676 106.394 63.9563 102.968 55.6847C95.8948 38.6089 76.2478 30.4712 59.172 37.5441C42.0961 44.6169 33.9582 64.2637 41.031 81.34C44.9508 90.8035 52.7476 97.7909 62.5298 100.667V109.839L58.574 115.177L48.4951 111.003L49.4885 104.329C49.6145 103.481 49.2495 102.635 48.546 102.146C44.5357 99.3552 41.1045 95.9313 38.3476 91.9688C37.8583 91.2653 37.0125 90.8997 36.1649 91.0263L29.5091 92.0166L25.3342 81.9377L30.7407 77.9318C31.4295 77.4217 31.7692 76.5652 31.6176 75.7215C30.7651 70.9701 30.7699 66.1224 31.6325 61.3139C31.7838 60.4704 31.4444 59.614 30.7556 59.1041L25.3336 55.0868L29.5085 45.0079L36.1826 46.001C37.03 46.127 37.8757 45.7619 38.3651 45.0588C41.1559 41.0482 44.5799 37.6169 48.5421 34.8604C49.2455 34.3713 49.6109 33.5253 49.4846 32.6779L48.4943 26.0221L58.5732 21.8472L62.5793 27.254C63.0895 27.9427 63.9453 28.2822 64.7891 28.1309C69.5399 27.2784 74.3873 27.2832 79.1967 28.1458C80.0396 28.2971 80.896 27.9574 81.4062 27.2689L85.4235 21.8469L95.5024 26.0218L94.509 32.6964C94.383 33.5438 94.7481 34.3896 95.4515 34.8789C99.4621 37.6695 102.893 41.0934 105.65 45.056C106.139 45.7594 106.986 46.1253 107.833 45.9984L114.488 45.0082L118.663 55.0868L113.257 59.0929C112.568 59.6031 112.228 60.4592 112.38 61.3027C113.232 66.0544 113.228 70.9017 112.365 75.7102C112.214 76.5537 112.553 77.4101 113.242 77.92L118.664 81.9374L114.49 92.0157Z" fill="#1B429C"/>
</mask>
<g mask="url(#mask0_74_1373)">
<circle cx="72" cy="67" r="36" fill="#2A85D9"/>
</g>
</svg>
