<svg width="144" height="144" viewBox="0 0 144 144" fill="none" xmlns="http://www.w3.org/2000/svg">
<g clip-path="url(#clip0_74_1392)">
<path d="M134.4 57.6C134.4 41.76 121.44 28.8 105.6 28.8C89.76 28.8 76.8 41.76 76.8 57.6C76.8 73.44 89.76 86.4 105.6 86.4C121.44 86.4 134.4 73.44 134.4 57.6ZM105.6 81.6C92.4 81.6 81.6 70.8 81.6 57.6C81.6 44.4 92.4 33.6 105.6 33.6C118.8 33.6 129.6 44.4 129.6 57.6C129.6 70.8 118.8 81.6 105.6 81.6Z" fill="#1B429C"/>
<path d="M144 57.6C144 36.48 126.72 19.2 105.6 19.2C84.48 19.2 67.2 36.48 67.2 57.6C67.2 75.12 79.2 90.48 96 94.8V105.6H91.2C89.76 105.6 88.8 106.56 88.8 108V141.6C88.8 143.04 89.76 144 91.2 144H120C121.44 144 122.4 143.04 122.4 141.6V108C122.4 106.56 121.44 105.6 120 105.6H115.2V94.8C132 90.48 144 75.12 144 57.6ZM117.6 139.2H93.6V132H108V127.2H93.6V122.4H108V117.6H93.6V110.4H98.4H112.8H117.6V139.2ZM100.8 105.6V92.88C100.8 91.68 100.08 90.72 98.88 90.48C83.28 87.36 72 73.44 72 57.6C72 39.12 87.12 24 105.6 24C124.08 24 139.2 39.12 139.2 57.6C139.2 73.44 127.92 87.36 112.32 90.48C111.12 90.72 110.4 91.68 110.4 92.88V105.6H100.8Z" fill="#2A85D9"/>
<path d="M4.8 43.2H55.2V38.4H21.6V9.6C21.6 6.96 23.76 4.8 26.4 4.8H88.8C91.44 4.8 93.6 6.96 93.6 9.6V14.4H98.4V9.6C98.4 4.32 94.08 0 88.8 0H26.4C21.12 0 16.8 4.32 16.8 9.6V38.4H2.4C0.96 38.4 0 39.36 0 40.8V141.6C0 143.04 0.96 144 2.4 144H76.8V139.2H4.8V43.2Z" fill="#1B429C"/>
<path d="M50.4 124.8H64.8C66.24 124.8 67.2 123.84 67.2 122.4V88.7997H62.4V120H52.8V89.5197C52.8 88.5597 52.08 87.8397 51.36 87.3597C46.32 84.7197 43.2 79.6797 43.2 74.1597C43.2 66.2397 49.68 59.7597 57.6 59.7597V54.9597C47.04 54.9597 38.4 63.5997 38.4 74.1597C38.4 81.1197 42 87.3597 48 90.9597V122.4C48 123.84 48.96 124.8 50.4 124.8Z" fill="#1B429C"/>
<path d="M62.4 72H52.8V76.8H62.4V72Z" fill="#1B429C"/>
<path d="M19.2 50.3999H14.4V93.5999H19.2V50.3999Z" fill="#1B429C"/>
<path d="M19.2 100.8H14.4V110.4H19.2V100.8Z" fill="#2A85D9"/>
<path d="M108 52.8H103.2V57.6H108V52.8Z" fill="#1B429C"/>
<path d="M117.6 52.8H112.8V57.6H117.6V52.8Z" fill="#1B429C"/>
<path d="M98.4 52.8H93.6V57.6H98.4V52.8Z" fill="#1B429C"/>
<path d="M108 43.2H103.2V48H108V43.2Z" fill="#1B429C"/>
<path d="M98.4 43.2H93.6V48H98.4V43.2Z" fill="#1B429C"/>
<path d="M98.4 62.3999H93.6V67.1999H98.4V62.3999Z" fill="#1B429C"/>
<path d="M108 62.3999H103.2V67.1999H108V62.3999Z" fill="#1B429C"/>
<path d="M108 72H103.2V76.8H108V72Z" fill="#1B429C"/>
<path d="M117.6 62.3999H112.8V67.1999H117.6V62.3999Z" fill="#1B429C"/>
<path d="M117.6 43.2H112.8V48H117.6V43.2Z" fill="#1B429C"/>
</g>
<defs>
<clipPath id="clip0_74_1392">
<rect width="144" height="144" fill="white"/>
</clipPath>
</defs>
</svg>
