<svg width="160" height="144" viewBox="0 0 160 144" fill="none" xmlns="http://www.w3.org/2000/svg">
<g clip-path="url(#clip0_75_1447)">
<path d="M157.447 -0.340332H2.55319C1.14281 -0.340332 0 0.802477 0 2.21286V141.787C0 143.198 1.14281 144.341 2.55319 144.341H157.447C158.857 144.341 160 143.198 160 141.787V2.21286C160 0.802477 158.857 -0.340332 157.447 -0.340332ZM154.894 139.234H5.10638V4.76605H99.5745V20.0852H12.766C11.3556 20.0852 10.2128 21.228 10.2128 22.6384C10.2128 24.0488 11.3556 25.1916 12.766 25.1916H147.234C148.644 25.1916 149.787 24.0488 149.787 22.6384C149.787 21.228 148.644 20.0852 147.234 20.0852H104.681V4.76605H154.894V139.234Z" fill="#1B429C"/>
<path d="M129.872 14.9787C131.282 14.9787 132.426 13.8356 132.426 12.4255C132.426 11.0154 131.282 9.87231 129.872 9.87231C128.462 9.87231 127.319 11.0154 127.319 12.4255C127.319 13.8356 128.462 14.9787 129.872 14.9787Z" fill="#2A85D9"/>
<path d="M115.915 14.9787C117.325 14.9787 118.468 13.8356 118.468 12.4255C118.468 11.0154 117.325 9.87231 115.915 9.87231C114.505 9.87231 113.362 11.0154 113.362 12.4255C113.362 13.8356 114.505 14.9787 115.915 14.9787Z" fill="#2A85D9"/>
<path d="M143.83 14.9787C145.24 14.9787 146.383 13.8356 146.383 12.4255C146.383 11.0154 145.24 9.87231 143.83 9.87231C142.42 9.87231 141.277 11.0154 141.277 12.4255C141.277 13.8356 142.42 14.9787 143.83 14.9787Z" fill="#2A85D9"/>
<path d="M80 62.3579C69.5673 62.3579 61.0802 70.8454 61.0802 81.2777C61.0802 91.7101 69.5673 100.198 80 100.198C83.0012 100.198 85.9956 99.4714 88.6591 98.0982C89.9125 97.452 90.4044 95.912 89.7583 94.6585C89.1118 93.4051 87.5721 92.9142 86.3186 93.5593C84.3479 94.5754 82.2223 95.0909 80 95.0909C72.3833 95.0909 66.1866 88.8941 66.1866 81.2774C66.1866 73.6607 72.3833 67.464 80 67.464C87.6167 67.464 93.8134 73.6607 93.8134 81.2774C93.8134 83.4997 93.298 85.6253 92.2822 87.5957C91.6361 88.8488 92.128 90.3885 93.3815 91.0354C94.6342 91.6805 96.174 91.1903 96.8211 89.9361C98.1944 87.2737 98.9202 84.2796 98.9202 81.2774C98.9198 70.8451 90.4327 62.3579 80 62.3579Z" fill="#2A85D9"/>
<path d="M121.902 71.9161H111.164C110.534 69.8224 109.693 67.7986 108.649 65.8677L116.249 58.2684C116.727 57.7894 116.996 57.1402 116.996 56.4628C116.996 55.7853 116.727 55.1365 116.249 54.6572L106.62 45.0286C105.623 44.0318 104.006 44.0318 103.009 45.0286L95.41 52.6282C93.4791 51.5852 91.4556 50.7436 89.3617 50.1135V39.3755C89.3617 37.9651 88.2189 36.8223 86.8085 36.8223H73.1915C71.7811 36.8223 70.6383 37.9651 70.6383 39.3755V50.1135C68.5447 50.7436 66.5208 51.5848 64.5899 52.6282L56.9906 45.0286C55.9932 44.0318 54.3768 44.0318 53.3797 45.0286L43.7511 54.6572C43.2725 55.1361 43.0036 55.7853 43.0036 56.4628C43.0036 57.1402 43.2725 57.7891 43.7511 58.2684L51.3508 65.8677C50.3077 67.7986 49.4662 69.8221 48.8361 71.9161H38.098C36.6876 71.9161 35.5448 73.0589 35.5448 74.4692V88.0863C35.5448 89.4966 36.6876 90.6395 38.098 90.6395H48.8364C49.4665 92.7338 50.3074 94.7572 51.3508 96.6878L43.7515 104.287C43.2725 104.766 43.0036 105.415 43.0036 106.092C43.0036 106.77 43.2725 107.419 43.7511 107.898L53.3797 117.527C54.3768 118.523 55.9935 118.524 56.9903 117.527L64.5899 109.927C66.5208 110.97 68.5443 111.812 70.6383 112.442V123.18C70.6383 124.59 71.7811 125.733 73.1915 125.733H86.8085C88.2189 125.733 89.3617 124.59 89.3617 123.18V112.442C91.4553 111.812 93.4791 110.971 95.41 109.927L103.01 117.527C104.006 118.523 105.623 118.523 106.62 117.527L116.249 107.898C116.727 107.419 116.996 106.77 116.996 106.092C116.996 105.415 116.727 104.766 116.248 104.287L108.649 96.6878C109.692 94.7569 110.533 92.7338 111.164 90.6395H121.902C123.312 90.6395 124.455 89.4966 124.455 88.0863V74.4692C124.455 73.0589 123.312 71.9161 121.902 71.9161ZM119.349 85.5331H109.203C108.017 85.5331 106.986 86.3508 106.717 87.5069C106.037 90.4219 104.884 93.196 103.289 95.753C102.66 96.761 102.81 98.0696 103.65 98.9098L110.833 106.092L104.815 112.11L97.6316 104.927C96.7915 104.088 95.4836 103.938 94.4752 104.567C91.9183 106.162 89.1438 107.315 86.2291 107.994C85.073 108.264 84.2553 109.294 84.2553 110.481V120.626H75.7447V110.481C75.7447 109.294 74.927 108.264 73.7709 107.994C70.8561 107.315 68.0817 106.162 65.5247 104.567C64.5164 103.938 63.2075 104.088 62.3683 104.927L55.185 112.11L49.167 106.092L56.3499 98.9098C57.1904 98.0692 57.3399 96.7607 56.7108 95.7527C55.1159 93.1967 53.9629 90.4226 53.2834 87.5069C53.0138 86.3508 51.9836 85.5331 50.7966 85.5331H40.6512V77.0224H50.7966C51.9833 77.0224 53.0138 76.2047 53.2834 75.0486C53.9625 72.1339 55.1159 69.3595 56.7111 66.8025C57.3402 65.7945 57.1904 64.4859 56.3503 63.6458L49.167 56.4628L55.185 50.4447L62.368 57.6281C63.2081 58.4682 64.5167 58.618 65.5247 57.9889C68.0817 56.3933 70.8561 55.2403 73.7709 54.5612C74.927 54.2915 75.7447 53.2614 75.7447 52.0744V41.929H84.2553V52.0744C84.2553 53.2611 85.073 54.2915 86.2291 54.5612C89.1438 55.2403 91.9183 56.3937 94.4752 57.9889C95.4836 58.618 96.7925 58.4672 97.632 57.6281L104.815 50.4447L110.833 56.4628L103.65 63.6458C102.81 64.4863 102.66 65.7949 103.289 66.8025C104.884 69.3595 106.037 72.1339 106.717 75.0486C106.986 76.2047 108.016 77.0224 109.203 77.0224H119.349V85.5331Z" fill="#2A85D9"/>
</g>
<defs>
<clipPath id="clip0_75_1447">
<rect width="160" height="144" fill="white"/>
</clipPath>
</defs>
</svg>
