<svg width="0" height="0" class="hidden">
  <symbol xmlns="http://www.w3.org/2000/svg" viewBox="0 0 512 512" id="email">
    <path d="M64 112c-8.8 0-16 7.2-16 16v22.1L220.5 291.7c20.7 17 50.4 17 71.1 0L464 150.1V128c0-8.8-7.2-16-16-16H64zM48 212.2V384c0 8.8 7.2 16 16 16H448c8.8 0 16-7.2 16-16V212.2L322 328.8c-38.4 31.5-93.7 31.5-132 0L48 212.2zM0 128C0 92.7 28.7 64 64 64H448c35.3 0 64 28.7 64 64V384c0 35.3-28.7 64-64 64H64c-35.3 0-64-28.7-64-64V128z" fill="currentColor"></path>
  </symbol>
  <symbol xmlns="http://www.w3.org/2000/svg" viewBox="0 0 11 7" id="ic_arr_ver">
    <path d="M1 1.25L5.5 5.75L10 1.25" stroke="currentColor" fill="none"></path>
  </symbol>
  <symbol xmlns="http://www.w3.org/2000/svg" viewBox="0 0 72 28" id="ic_arrow_hor">
    <path d="M71 14H0M71 14L58 1M71 14L58 27" stroke="currentColor" fill="none"></path>
  </symbol>
  <symbol xmlns="http://www.w3.org/2000/svg" viewBox="0 0 29 16" id="ic_arrow_hor2">
    <path d="M29 8H1M1 8L8 1M1 8L8 15" stroke="currentColor" fill="none"></path>
  </symbol>
  <symbol xmlns="http://www.w3.org/2000/svg" viewBox="0 0 26 27" id="ic_cart">
    <path d="M2.16345 3.76416L3.29858 3.99119C4.23103 4.17768 4.93239 4.95116 5.02701 5.89736L5.1923 7.55022L6.26169 16.4618C6.39217 17.5492 7.3146 18.3675 8.40974 18.3675H18.1377C19.875 18.3675 21.3893 17.1851 21.8107 15.4997L23.0252 10.6416C23.4178 9.07134 22.2301 7.55022 20.6115 7.55022H14.4952H9.1947" stroke="currentColor" stroke-width="2" stroke-linecap="round" fill="none"></path>
    <path d="M14.0625 15.1221H9.7356" stroke="currentColor" stroke-width="2" stroke-linecap="round" stroke-linejoin="round" fill="none"></path>
    <circle cx="9.19474" cy="22.1534" r="1.6226" fill="currentColor"></circle>
    <circle cx="18.9303" cy="22.1534" r="1.6226" fill="currentColor"></circle>
  </symbol>
  <symbol xmlns="http://www.w3.org/2000/svg" viewBox="0 0 11 8" id="ic_check">
    <path d="M1 3L4.5 6.5L10 1" stroke="currentColor" fill="none"></path>
  </symbol>
  <symbol xmlns="http://www.w3.org/2000/svg" viewBox="0 0 47 47" id="ic_close">
    <path d="M46 1L23.5 23.5M1 46L23.5 23.5M23.5 23.5L1 1L46 46" stroke="currentColor" fill="none"></path>
  </symbol>
  <symbol xmlns="http://www.w3.org/2000/svg" viewBox="0 0 83 83" id="ic_contacts">
    <rect x="13.8335" y="6.91666" width="55.3333" height="69.1667" rx="13.8333" stroke="currentColor" stroke-width="5.1875" fill="none"></rect>
    <path opacity="0.33" d="M27.667 24.2084H55.3337" stroke="currentColor" stroke-width="5.1875" stroke-linecap="round" fill="none"></path>
    <path opacity="0.33" d="M27.667 41.5H55.3337" stroke="currentColor" stroke-width="5.1875" stroke-linecap="round" fill="none"></path>
    <path opacity="0.33" d="M27.667 58.7917H41.5003" stroke="currentColor" stroke-width="5.1875" stroke-linecap="round" fill="none"></path>
  </symbol>
  <symbol xmlns="http://www.w3.org/2000/svg" viewBox="0 0 16 16" id="ic_delete">
    <path d="M15.5 1L8.25 8.25M1 15.5L8.25 8.25M8.25 8.25L1 1L15.5 15.5" stroke="currentColor" fill="none"></path>
  </symbol>
  <symbol xmlns="http://www.w3.org/2000/svg" viewBox="0 0 22 21" id="ic_favorite">
    <path d="M11.62 19.3101C11.28 19.4301 10.72 19.4301 10.38 19.3101C7.48 18.3201 1 14.1901 1 7.1901C1 4.1001 3.49 1.6001 6.56 1.6001C8.38 1.6001 9.99 2.4801 11 3.8401C12.01 2.4801 13.63 1.6001 15.44 1.6001C18.51 1.6001 21 4.1001 21 7.1901C21 14.1901 14.52 18.3201 11.62 19.3101Z" stroke="currentColor" stroke-width="1.5" stroke-linecap="round" stroke-linejoin="round" fill="none"></path>
  </symbol>
  <symbol xmlns="http://www.w3.org/2000/svg" viewBox="0 0 15 15" id="ic_instagram">
    <path d="M7.49993 5.4686C6.3781 5.4686 5.46868 6.37802 5.46868 7.49985C5.46868 8.62167 6.3781 9.5311 7.49993 9.5311C8.62176 9.5311 9.53118 8.62167 9.53118 7.49985C9.53118 6.37802 8.62176 5.4686 7.49993 5.4686Z" fill="currentColor"></path>
    <path fill-rule="evenodd" clip-rule="evenodd" d="M4.23089 1.92576C6.38597 1.6849 8.61391 1.6849 10.769 1.92576C11.9555 2.05837 12.9125 2.99323 13.0517 4.18389C13.3094 6.38702 13.3094 8.61267 13.0517 10.8158C12.9125 12.0065 11.9555 12.9413 10.769 13.0739C8.61391 13.3148 6.38597 13.3148 4.23089 13.0739C3.04439 12.9413 2.0874 12.0065 1.94814 10.8158C1.69046 8.61267 1.69046 6.38702 1.94814 4.18389C2.0874 2.99323 3.04439 2.05837 4.23089 1.92576ZM10.6249 3.74985C10.2798 3.74985 9.99993 4.02967 9.99993 4.37485C9.99993 4.72002 10.2798 4.99985 10.6249 4.99985C10.9701 4.99985 11.2499 4.72002 11.2499 4.37485C11.2499 4.02967 10.9701 3.74985 10.6249 3.74985ZM4.53118 7.49985C4.53118 5.86025 5.86034 4.5311 7.49993 4.5311C9.13953 4.5311 10.4687 5.86025 10.4687 7.49985C10.4687 9.13944 9.13953 10.4686 7.49993 10.4686C5.86034 10.4686 4.53118 9.13944 4.53118 7.49985Z" fill="currentColor"></path>
  </symbol>
  <symbol xmlns="http://www.w3.org/2000/svg" viewBox="0 0 32 14" id="ic_menu">
    <path d="M1 13L31 13" stroke="currentColor" stroke-width="2" stroke-linecap="round" fill="none"></path>
    <path d="M25 7L31 7" stroke="currentColor" stroke-width="2" stroke-linecap="round" fill="none"></path>
    <path d="M1 7L20 7" stroke="currentColor" stroke-width="2" stroke-linecap="round" fill="none"></path>
    <path d="M1 1L31 1" stroke="currentColor" stroke-width="2" stroke-linecap="round" fill="none"></path>
  </symbol>
  <symbol xmlns="http://www.w3.org/2000/svg" viewBox="0 0 16 16" id="ic_phone">
    <path d="M12.708 13.4789C11.4052 14.7817 8.06855 13.5575 5.25551 10.7445C2.44248 7.93145 1.21826 4.59485 2.52114 3.29197L3.37898 2.43412C3.9712 1.8419 4.94703 1.85756 5.55856 2.46909L6.88728 3.79781C7.49881 4.40934 7.51447 5.38517 6.92225 5.97739L6.73799 6.16165C6.41825 6.48139 6.38696 6.99721 6.68407 7.35725C6.97064 7.70452 7.2796 8.05043 7.61458 8.38542C7.94957 8.7204 8.29548 9.02936 8.64275 9.31593C9.00279 9.61304 9.51861 9.58175 9.83835 9.26201L10.0226 9.07775C10.6148 8.48553 11.5907 8.50119 12.2022 9.11272L13.5309 10.4414C14.1424 11.053 14.1581 12.0288 13.5659 12.621L12.708 13.4789Z" stroke="currentColor" fill="none"></path>
  </symbol>
  <symbol xmlns="http://www.w3.org/2000/svg" viewBox="0 0 25 25" id="ic_search">
    <path d="M19.2978 14.0699C19.9425 12.1517 19.865 10.0642 19.0797 8.1991C18.2944 6.33404 16.8554 4.81973 15.0328 3.94045C13.2102 3.06116 11.1293 2.87737 9.18074 3.42356C7.23221 3.96976 5.55003 5.20838 4.45 6.90692C3.34996 8.60546 2.90771 10.6471 3.20627 12.6486C3.50482 14.6501 4.52365 16.4738 6.0715 17.7774C7.61935 19.0809 9.58978 19.7747 11.6129 19.7285C13.636 19.6822 15.5727 18.8991 17.0593 17.5262" stroke="currentColor" stroke-width="2" stroke-linecap="round" stroke-linejoin="round" fill="none"></path>
    <path d="M17.1346 17.6103L22.327 22.8027" stroke="currentColor" stroke-width="2" stroke-linecap="round" stroke-linejoin="round" fill="none"></path>
  </symbol>
  <symbol xmlns="http://www.w3.org/2000/svg" viewBox="0 0 15 15" id="ic_telegram">
    <path fill-rule="evenodd" clip-rule="evenodd" d="M11.5519 12.3689L11.5524 12.3678L11.5632 12.3406L13.4375 2.8912V2.86051C13.4375 2.62507 13.3505 2.41953 13.1612 2.29625C12.9955 2.18833 12.805 2.18065 12.6715 2.19079C12.5302 2.20151 12.397 2.23677 12.3048 2.26612C12.2574 2.28122 12.2176 2.29577 12.1893 2.30677C12.175 2.31229 12.1635 2.31698 12.1551 2.32047L12.1468 2.32395L1.69692 6.42328L1.69404 6.42431C1.6884 6.42637 1.68093 6.42915 1.67192 6.43266C1.65395 6.43966 1.62948 6.44967 1.60075 6.46269C1.54432 6.48826 1.46636 6.52773 1.3873 6.58187C1.25301 6.67383 0.997318 6.89153 1.04049 7.23667C1.07626 7.52255 1.27332 7.70411 1.40618 7.79811C1.4774 7.84851 1.54553 7.88484 1.59542 7.9086C1.6207 7.92063 1.64217 7.92985 1.65817 7.93636C1.66618 7.93963 1.67289 7.94224 1.67808 7.9442L1.68472 7.94668L1.68896 7.94826L3.51724 8.56376C3.51107 8.67847 3.52244 8.79543 3.55286 8.91083L4.46867 12.3848C4.57725 12.7967 4.94989 13.0837 5.37587 13.0834C5.75771 13.0831 6.09635 12.8521 6.24021 12.5074L7.67001 10.9787L10.1256 12.8613L10.1605 12.8765C10.3836 12.9739 10.5921 13.0047 10.7827 12.9787C10.973 12.9527 11.1242 12.8729 11.2378 12.782C11.3496 12.6926 11.4262 12.5916 11.4744 12.5156C11.4989 12.477 11.5171 12.4431 11.5298 12.4176C11.5361 12.4047 11.5411 12.3939 11.5449 12.3854L11.5496 12.3745L11.5513 12.3705L11.5519 12.3689ZM4.45936 8.67184C4.43855 8.59289 4.47123 8.50954 4.54015 8.46577L10.7414 4.5277C10.7414 4.5277 11.1062 4.30626 11.0931 4.5277C11.0931 4.5277 11.1582 4.5668 10.9628 4.74913C10.7774 4.9223 6.54296 9.01047 6.1145 9.42414C6.08977 9.44802 6.07501 9.47541 6.06629 9.50867L5.37517 12.1459L4.45936 8.67184Z" fill="currentColor"></path>
  </symbol>
  <symbol xmlns="http://www.w3.org/2000/svg" viewBox="0 0 27 27" id="ic_user">
    <path d="M9 7.875C9 10.3603 11.0147 12.375 13.5 12.375C15.9853 12.375 18 10.3603 18 7.875C18 5.38972 15.9853 3.375 13.5 3.375" stroke="currentColor" stroke-width="2" stroke-linecap="round" fill="none"></path>
    <path d="M5.625 19.0515C5.625 18.0836 6.23346 17.2202 7.14498 16.8947V16.8947C11.2545 15.4269 15.7455 15.4269 19.855 16.8947V16.8947C20.7665 17.2202 21.375 18.0836 21.375 19.0515V20.5315C21.375 21.8673 20.1918 22.8935 18.8694 22.7046L17.7957 22.5512C14.9464 22.1441 12.0536 22.1441 9.20433 22.5512L8.13061 22.7046C6.80817 22.8935 5.625 21.8673 5.625 20.5315V19.0515Z" stroke="currentColor" stroke-width="2" fill="none"></path>
  </symbol>
  <symbol xmlns="http://www.w3.org/2000/svg" viewBox="0 0 15 15" id="ic_vk">
    <path d="M13.4397 11.4881H12.0137C11.4742 11.4881 11.312 11.0512 10.3444 10.0837C9.49999 9.26954 9.14326 9.16789 8.92923 9.16789C8.63407 9.16789 8.55295 9.24901 8.55295 9.65656V10.9388C8.55295 11.2858 8.44056 11.4891 7.53456 11.4891C6.65529 11.43 5.80264 11.1629 5.04683 10.7097C4.29103 10.2565 3.6537 9.63025 3.18734 8.88251C2.08018 7.50446 1.30981 5.88709 0.9375 4.15901C0.9375 3.94498 1.01862 3.75146 1.42617 3.75146H2.85114C3.21764 3.75146 3.34958 3.91468 3.49325 4.29096C4.18521 6.32774 5.36584 8.09868 5.84473 8.09868C6.02847 8.09868 6.10862 8.01756 6.10862 7.55919V5.46181C6.04802 4.50499 5.5398 4.42387 5.5398 4.0779C5.54633 3.98664 5.58815 3.90152 5.65639 3.84058C5.72463 3.77964 5.81392 3.74767 5.90533 3.75146H8.1454C8.45131 3.75146 8.55295 3.90393 8.55295 4.27043V7.10081C8.55295 7.40672 8.68489 7.50837 8.77676 7.50837C8.9605 7.50837 9.10222 7.40672 9.43842 7.07052C10.1605 6.18988 10.7505 5.20876 11.1898 4.15804C11.2347 4.03183 11.3197 3.92377 11.4317 3.85036C11.5438 3.77695 11.6768 3.74222 11.8104 3.75146H13.2364C13.6635 3.75146 13.7544 3.9655 13.6635 4.27043C13.145 5.43193 12.5034 6.53449 11.7498 7.55919C11.5964 7.79375 11.5348 7.91592 11.7498 8.19055C11.8916 8.40459 12.391 8.82191 12.7272 9.21871C13.2158 9.70606 13.6215 10.2699 13.9283 10.888C14.0505 11.2848 13.8462 11.4881 13.4397 11.4881Z" fill="currentColor"></path>
  </symbol>
</svg>